<?xml version="1.0" encoding="utf-8"?>
<!-- Generator: Adobe Illustrator 16.0.0, SVG Export Plug-In . SVG Version: 6.00 Build 0)  -->
<!DOCTYPE svg PUBLIC "-//W3C//DTD SVG 1.1//EN" "http://www.w3.org/Graphics/SVG/1.1/DTD/svg11.dtd">
<svg version="1.1" id="Layer_1" xmlns="http://www.w3.org/2000/svg" xmlns:xlink="http://www.w3.org/1999/xlink" x="0px" y="0px"
	 width="500px" height="500px" viewBox="0 0 500 500" enable-background="new 0 0 500 500" xml:space="preserve">
<path fill="#D4EAF9" d="M373.915,421.337l-0.727-1.239l21.434-12.564c2.646-1.551,5.933-1.539,8.571,0.039l17.714,10.582
	l-0.737,1.234l-17.714-10.585c-2.187-1.307-4.912-1.318-7.107-0.031L373.915,421.337z"/>
<path fill="#D4EAF9" d="M437.693,417.865l-0.729-1.236l55.603-32.856c0.53-0.313,0.849-0.869,0.852-1.485
	c0.003-0.617-0.313-1.175-0.84-1.492l-18.461-11.336l0.751-1.223l18.454,11.333c0.961,0.575,1.535,1.596,1.531,2.723
	c-0.004,1.128-0.586,2.143-1.558,2.718L437.693,417.865z"/>
<path fill="#D4EAF9" d="M377.14,372.607l-0.715-1.245l54.189-31.201c0.561-0.324,0.896-0.904,0.896-1.553
	c-0.001-0.646-0.336-1.227-0.898-1.549l-28.68-16.473c-3.928-2.255-6.367-6.471-6.367-10.999v-94.365
	c0-3.911,1.929-7.556,5.162-9.754l4.307-2.93l0.808,1.186l-4.308,2.93c-2.839,1.932-4.533,5.135-4.533,8.568v94.365
	c0,4.017,2.163,7.755,5.646,9.754l28.68,16.473c1.013,0.581,1.618,1.625,1.62,2.793c0,1.168-0.604,2.214-1.615,2.798L377.14,372.607
	z"/>
<path fill="#5552A3" d="M373.554,402.407c-0.494,0-0.974-0.252-1.239-0.709c-0.401-0.685-0.173-1.562,0.512-1.963l21.433-12.564
	c2.873-1.688,6.438-1.674,9.302,0.04l17.714,10.581c0.682,0.407,0.903,1.29,0.496,1.969c-0.407,0.682-1.291,0.903-1.968,0.496
	l-17.714-10.582c-1.964-1.175-4.408-1.18-6.378-0.027l-21.433,12.563C374.05,402.346,373.8,402.407,373.554,402.407z"/>
<path fill="#D4EAF9" d="M343.157,469.592l-119.264-68.855c-4.147-2.395-3.627-6.575,1.161-9.34l0,0
	c4.788-2.765,12.03-3.064,16.176-0.67l119.265,68.857c4.146,2.393,3.627,6.573-1.161,9.338l0,0
	C354.546,471.687,347.303,471.986,343.157,469.592z"/>
<g>
	<g>
		<g>
			<path fill="#D4EAF9" d="M457.228,287.405c-0.89-0.514-1.849-0.96-2.847-1.36l0.029-0.003l-5.477-2.427l0.412,0.957
				c-4.149-0.826-8.654-0.878-12.842-0.137l0.255-1.063l-6.441,2.854l0.038,0.003c-0.838,0.355-1.65,0.737-2.409,1.175
				c-8.085,4.668-8.085,12.237,0.002,16.904c8.085,4.669,21.194,4.669,29.279,0.002
				C465.313,299.643,465.313,292.073,457.228,287.405z"/>
			<path fill="#5793CE" d="M449.448,291.813c-3.789,2.188-9.933,2.188-13.721,0c-3.79-2.187-3.79-5.733,0-7.921
				c3.788-2.187,9.932-2.187,13.721,0C453.236,286.079,453.236,289.626,449.448,291.813z"/>
		</g>
		<g>
			<path fill="#5793CE" d="M442.587,289.362L442.587,289.362c-1.821,0-3.297-1.477-3.297-3.298v-41.694h6.596v41.694
				C445.886,287.886,444.408,289.362,442.587,289.362z"/>
			<path fill="#5793CE" d="M444.907,245.885c-1.315,0.758-3.446,0.758-4.761,0c-1.315-0.76-1.315-1.99,0-2.749
				c1.314-0.759,3.445-0.759,4.761,0C446.223,243.895,446.223,245.125,444.907,245.885z"/>
		</g>
		<path fill="#D4EAF9" d="M442.587,245.803L442.587,245.803c-1.476,0-2.673-1.196-2.673-2.673v-39.194h5.347v39.194
			C445.261,244.606,444.063,245.803,442.587,245.803z"/>
		<g>
			<path fill="#3B6DAB" d="M481.031,224.474v-1.535l2.168-0.313l2.428-1.816c0.393-0.294,1.145-0.323,1.599-0.06l1.792,1.034
				l1.774-0.256v1.555l-0.007,0.001c-0.01,0.176-0.144,0.351-0.408,0.468l-5.652,2.519c-0.449,0.199-1.083,0.176-1.482-0.056
				l-1.883-1.086c-0.216-0.125-0.318-0.29-0.318-0.456L481.031,224.474z"/>
			<path fill="#5793CE" d="M481.265,222.527l4.362-3.264c0.393-0.294,1.145-0.323,1.599-0.06l3.254,1.878
				c0.455,0.263,0.406,0.696-0.103,0.923l-5.652,2.518c-0.449,0.2-1.083,0.176-1.482-0.055l-1.883-1.087
				C480.96,223.151,480.919,222.785,481.265,222.527z"/>
			<g>
				<path fill="#D4EAF9" d="M473.907,229.931c0.623,0,1.247-0.145,1.745-0.431l6.778-3.914c0.373-0.217,0.502-0.695,0.284-1.07
					c-0.216-0.373-0.692-0.502-1.067-0.285l-6.777,3.914c-0.504,0.29-1.423,0.29-1.928,0l-11.265-6.525
					c-0.37-0.217-0.852-0.088-1.068,0.286c-0.216,0.375-0.089,0.853,0.287,1.068l11.265,6.524
					C472.657,229.786,473.281,229.931,473.907,229.931z"/>
			</g>
		</g>
		<g>
			<radialGradient id="SVGID_1_" cx="336.7539" cy="207.4863" r="67.1884" gradientUnits="userSpaceOnUse">
				<stop  offset="0" style="stop-color:#2AC3EA"/>
				<stop  offset="0.066" style="stop-color:#2BBBE4"/>
				<stop  offset="0.1762" style="stop-color:#24AADA"/>
				<stop  offset="0.3162" style="stop-color:#1B91C9"/>
				<stop  offset="0.4457" style="stop-color:#1578B8"/>
				<stop  offset="1" style="stop-color:#232B62"/>
			</radialGradient>
			<polygon fill="url(#SVGID_1_)" points="408.738,215.591 419.622,209.266 413.523,206.512 408.307,210.21 			"/>
			<path fill="#5793CE" d="M478.626,206.201c-0.602-0.315-1.214-0.688-1.831-1.14l-23.191-16.996
				c-4.187-3.07-8.498-3.86-11.831-2.17c-0.087,0.045-0.161,0.105-0.245,0.153l-0.025-0.008l-32.03,18.583l2.878,0.958l11.217,5.087
				l15.261,10.825l12.043,6.391l0.547,0.116c2.808-2.365,5.951-4.395,7.676-7.843c2.981-5.218,11.284-6.712,16.165-10.941
				c0.492,0.313,0.986,0.605,1.479,0.858C477.744,209.083,478.016,207.674,478.626,206.201z"/>
			<path fill="#3B6DAB" d="M488.8,198.537c-0.498,0-0.949,0.175-1.313,0.458l-0.006-0.006l-31.344,18.143l1.146,4.687l1.175-0.561
				c-1.794,2.8-4.548,4.641-7.04,6.742l3.542,0.75l30.696-17.861c0.142-0.062,0.287-0.114,0.426-0.184
				c0.421-0.214,0.811-0.47,1.183-0.752l0.053-0.031l-0.02,0.002c2.337-1.804,3.656-4.944,3.656-8.864v-0.369
				C490.953,199.502,489.988,198.537,488.8,198.537z"/>
			<g>
				<path fill="#EAEAEA" d="M445.876,185.03c1.957,0.071,4.055,0.743,6.154,1.991C449.931,185.773,447.833,185.101,445.876,185.03z"
					/>
				<path fill="#5793CE" d="M460.15,218.592v-0.368c0-1.189-0.964-2.153-2.154-2.153c-1.189,0-2.153,0.964-2.153,2.153v0.368
					c0,2.879-0.916,4.995-2.513,5.805c-1.804,0.913-4.546,0.241-7.336-1.803l-23.193-16.996c-3.567-2.615-7.224-3.558-10.29-2.739
					l19.155-11.112l-22.194,12.875l2.878,0.958l11.217,5.087l15.261,10.825l12.043,6.391l0.547,0.116
					c2.808-2.365,5.951-4.395,7.676-7.843c0.297-0.52,0.658-0.993,1.053-1.445C460.146,218.671,460.15,218.634,460.15,218.592z"/>
			</g>
			<g>
				<path fill="#D4EAF9" d="M450.858,229.806c-2.537,0.001-5.331-1.032-8.072-3.041l-23.192-16.996
					c-2.789-2.043-5.529-2.716-7.337-1.802c-1.597,0.809-2.512,2.925-2.512,5.804c0,1.189-0.965,2.154-2.155,2.154
					c-1.188,0-2.153-0.965-2.153-2.154c0-4.561,1.776-8.077,4.872-9.647c3.331-1.687,7.645-0.897,11.831,2.17l23.192,16.996
					c2.79,2.043,5.532,2.715,7.337,1.801c1.597-0.809,2.512-2.924,2.512-5.803v-0.369c0-1.189,0.965-2.154,2.155-2.154
					c1.188,0,2.153,0.965,2.153,2.154v0.369c0,4.56-1.776,8.075-4.873,9.646C453.465,229.519,452.197,229.806,450.858,229.806z"/>
			</g>
		</g>
	</g>
	<g>
		<g>
			<path fill="#1F3F7A" d="M432.632,267.802c0,0-4.367-2.202-7.051,1.076c-2.682,3.281-6.516,11.024-6.635,16.256
				c-0.119,5.232,4.14,4.879,6.672,3.64c2.531-1.238,9.927-11.967,10.376-14.068c0.447-2.102-0.529-4.945-1.24-5.5
				C434.042,268.648,432.632,267.802,432.632,267.802z"/>
			<path fill="#5793CE" d="M433.585,266.749l0.202,4.525c0.043,0.962-0.44,1.879-1.278,2.354c-0.763,0.434-1.872,0.765-3.369,0.524
				c-3.29-0.528-3.585-1.469-3.82-5.993C425.085,263.635,433.585,266.749,433.585,266.749z"/>
			<g>
				<path fill="#1F3F7A" d="M416.643,259.1c0,0-4.367-2.202-7.051,1.078c-2.682,3.279-6.516,11.023-6.635,16.254
					c-0.119,5.232,4.14,4.879,6.672,3.642c2.531-1.239,9.928-11.968,10.375-14.07c0.447-2.102-0.528-4.943-1.239-5.5
					C418.053,259.946,416.643,259.1,416.643,259.1z"/>
				<path fill="#5793CE" d="M417.596,258.048l0.202,4.525c0.043,0.962-0.44,1.879-1.278,2.354c-0.763,0.433-1.871,0.764-3.369,0.522
					c-3.291-0.528-3.585-1.468-3.819-5.991C409.096,254.933,417.596,258.048,417.596,258.048z"/>
				<path fill="#FDD763" d="M456.571,174.965c-1.292-21.035-22.78,3.095-22.78,3.095l-14.706,14.415l-13.243,14.547
					c-2.587,2.842-3.789,6.678-3.289,10.487l5.357,40.792c0.265,2.015,1.987,3.501,4.019,3.484c0.574-0.005,1.232-0.057,1.985-0.174
					c4.779-0.745,4.426-5.288,4.426-5.288l-0.979-38.153l27.811-16.765C445.172,201.406,457.864,196,456.571,174.965z"/>
			</g>
			<path fill="#FDD763" d="M472.56,182.98c-1.293-21.035-22.779,3.095-22.779,3.095l-14.706,14.414l-13.244,14.548
				c-2.586,2.841-3.79,6.677-3.289,10.487l5.358,40.793c0.263,2.013,1.987,3.499,4.019,3.483c0.574-0.004,1.231-0.058,1.984-0.174
				c4.779-0.744,4.428-5.288,4.428-5.288l-0.98-38.153l27.813-16.765C461.162,209.421,473.853,204.015,472.56,182.98z"/>
			<path fill="#5552A3" d="M459.848,115.458c16.291,6.753,15.965,16.383,15.965,16.383s-3.191,35.303-2.102,58.881
				c0.455,9.855-52.367,10.608-44.49-15.687c9.288-31.005,5.807-56.105,10.154-59.89C443.724,111.36,455.634,113.71,459.848,115.458
				z"/>
			
				<ellipse transform="matrix(0.9684 0.2494 -0.2494 0.9684 44.8529 -110.1327)" fill="#FBC1B1" cx="456.953" cy="121.9" rx="8.402" ry="6.185"/>
			<path fill="#FFFFFF" d="M458.189,129.026c-0.978,0-1.979-0.125-2.974-0.382c-2.334-0.602-4.361-1.844-5.712-3.5
				c-1.405-1.723-1.917-3.688-1.442-5.535c0.959-3.717,5.726-5.709,10.629-4.453c2.332,0.601,4.359,1.843,5.71,3.499
				c1.406,1.723,1.918,3.688,1.442,5.535c-0.476,1.846-1.873,3.318-3.937,4.149C460.77,128.796,459.503,129.026,458.189,129.026z
				 M455.707,116.33c-3.025,0-5.554,1.407-6.137,3.669c-0.35,1.353,0.056,2.831,1.141,4.161c1.142,1.399,2.879,2.457,4.894,2.975
				c2.015,0.52,4.044,0.431,5.72-0.241c1.593-0.641,2.662-1.738,3.01-3.091v-0.001c0.35-1.353-0.056-2.83-1.141-4.161
				c-1.142-1.399-2.879-2.457-4.894-2.975C457.418,116.438,456.544,116.33,455.707,116.33z"/>
			<path fill="#FBC1B1" d="M453.316,114.723c0,0,0.14,0.653-0.142,5.815c-0.089,1.623,5.594,3.139,7.063,1.67
				c1.47-1.469,0.882-2.997,1.234-8.52C461.825,108.166,453.316,114.723,453.316,114.723z"/>
			<path fill="#EA9C92" d="M461.472,113.688c0,0-1.399,5.122-8.297,7.086l0.105-4.655L461.472,113.688z"/>
			<circle fill="#FBC1B1" cx="453.701" cy="103.816" r="12.54"/>
			<path fill="#EA9C92" d="M456.581,104.276c0,0-6.904,2.958-11.684,2.992c-4.78,0.034-3.728-3.969-3.728-3.969l14.19-2.051
				L456.581,104.276z"/>
			<path fill="#FDD763" d="M443.472,105.056c0,0,6.015-2.553,11.29-1.488c1.24,0.25,2.391,0.913,3.189,1.895
				c0.261,0.321,0.59,0.613,0.965,0.698c0.935,0.212,2.467-3.67,4.285-3.759s3.031,1.2,1.541,3.586
				c-1.491,2.388-0.987,5.059-0.302,5.442c0.688,0.383,7.964-5.19,1.545-17.906s-22.724-5.867-25.26-3.291
				c0,0-2.673,2.327-4.844,0.257C435.882,90.491,433.446,108.733,443.472,105.056z"/>
			<path fill="#FBC1B1" d="M466.674,157.634v9.54c0,1.094-0.461,2.135-1.269,2.871l-19.597,17.867l2.227,3.405l25.88-18.77
				c1.207-0.876,1.986-2.223,2.143-3.708l1.749-16.636L466.674,157.634z"/>
			<path fill="#5552A3" d="M474.433,127.071c0,0,5.945,8.941,8.161,32.476c0,0-10.156,3.285-15.92,1.42
				C460.911,159.102,474.433,127.071,474.433,127.071z"/>
			<path fill="#4E4EA1" d="M465.588,138.376c0,0-2.327,12.456-2.459,18.311c-0.037,1.609,0.946,3.062,2.459,3.609l0,0V138.376z"/>
		</g>
		<g>
			<path fill="#1F3F7A" d="M460.504,200.315l-4.332-0.572l-27.959-16.142c-0.896-0.518-2.462-0.453-3.496,0.145l-19.812,11.434
				l-2.619-0.346v2.608h0.002c-0.017,0.343,0.18,0.673,0.602,0.917l31.686,18.294c0.897,0.518,2.463,0.453,3.498-0.145
				l21.575-12.453c0.582-0.336,0.872-0.769,0.855-1.176l0,0V200.315z"/>
			<path fill="#3B6DAB" d="M439.496,190.115l-1.987-1.146h-21.838l-10.766,6.212l-2.619-0.346v2.608h0.002
				c-0.017,0.343,0.18,0.673,0.602,0.917l31.686,18.294c0.474,0.273,1.136,0.383,1.806,0.338L439.496,190.115z"/>
			<path fill="#5793CE" d="M403.447,194.988l-1.161-0.154v2.608h0.002c-0.017,0.343,0.18,0.673,0.602,0.917l0.558,0.322V194.988z"/>
			<path fill="#28508A" d="M434.895,216.803c0.85,0.322,2.063,0.251,2.971-0.185v-4.436h-2.971V216.803z"/>
			<path fill="#FFFFFF" d="M434.575,214.048l-31.686-18.293c-0.896-0.518-0.784-1.421,0.251-2.02l21.576-12.453
				c1.034-0.597,2.601-0.662,3.496-0.145l31.687,18.294c0.896,0.517,0.784,1.42-0.251,2.019l-21.575,12.452
				C437.038,214.5,435.473,214.566,434.575,214.048z"/>
			<path fill="#D4EAF9" d="M434.039,211.276l-26.347-15.211c-0.744-0.431-0.652-1.182,0.209-1.68l11.562-6.501
				c0.861-0.498,2.164-0.551,2.908-0.121l26.347,15.211c0.746,0.43,0.652,1.182-0.209,1.678l-11.562,6.502
				C436.086,211.652,434.785,211.707,434.039,211.276z"/>
		</g>
		<path fill="#FBC1B1" d="M425.941,180.683l-0.328,2.187c-0.278,1.862-0.231,3.759,0.144,5.605l0.39,1.926
			c0.22,1.086,1.079,1.93,2.172,2.128l0,0c0.851,0.155,1.655-0.443,1.752-1.304l0.523-4.674c0,0,1.195,1.567,1.773,1.567
			c0.576,0-0.646-4.681-1.953-7.33C429.108,178.14,425.941,180.683,425.941,180.683z"/>
		<path fill="#FBC1B1" d="M436.682,145.935l-3.399,6.729c-0.804,1.591-1.277,3.328-1.391,5.107l-1.478,23.017l-4.473-0.106
			l-2.029-25.848c-0.063-0.799-0.024-1.601,0.114-2.39l2.319-13.108L436.682,145.935z"/>
		<g>
			<path fill="#1F3F7A" d="M433.502,215.806l-2.656-3.468l-27.939-16.176c-0.896-0.518-1.621-1.908-1.619-3.104l0.023-22.874
				l-1.606-2.098l1.51-0.874l0.002,0.001c0.288-0.187,0.673-0.181,1.096,0.063l31.663,18.333c0.896,0.519,1.621,1.908,1.619,3.103
				l-0.026,24.912c-0.001,0.672-0.231,1.14-0.593,1.328l0,0L433.502,215.806z"/>
			<path fill="#3B6DAB" d="M414.181,202.689l-1.985-1.149L401.3,182.613l0.011-12.43l-1.606-2.098l1.51-0.874l0.002,0.001
				c0.288-0.187,0.673-0.181,1.096,0.063l31.663,18.333c0.475,0.274,0.897,0.792,1.193,1.396L414.181,202.689z"/>
			<path fill="#5793CE" d="M400.418,169.017l-0.714-0.931l1.51-0.874l0.002,0.001c0.288-0.187,0.673-0.181,1.096,0.063l0.559,0.324
				L400.418,169.017z"/>
			<path fill="#28508A" d="M434.263,185.813c0.703,0.575,1.249,1.663,1.323,2.667l-3.095,1.787l-1.482-2.576L434.263,185.813z"/>
			<path fill="#5793CE" d="M432.467,186.483l-31.664-18.333c-0.896-0.519-1.623,0.03-1.624,1.226l-0.027,24.911
				c-0.001,1.196,0.724,2.584,1.619,3.103l31.665,18.333c0.895,0.519,1.622-0.03,1.623-1.225l0.027-24.912
				C434.087,188.391,433.362,187.002,432.467,186.483z"/>
		</g>
		<path fill="#FBC1B1" d="M448.035,191.316l-0.508,1.052c-0.583,1.209-1.501,2.228-2.646,2.933l-3.146,1.939
			c-0.979,0.603-2.217,0.653-3.211,0.074c-0.035-0.021-0.071-0.042-0.106-0.064c-0.999-0.626-1.091-2.061-0.268-2.907l3.286-3.38
			c0,0-1.847,1.416-2.363,0.846c-0.381-0.418,1.79-2.455,3.457-2.522c1.665-0.067,3.277-1.375,3.277-1.375L448.035,191.316z"/>
		<path fill="#5552A3" d="M439.702,115.096c0,0-12.049,13.11-16.909,25.136c0,0,4.12,7.423,14.204,10.336
			C447.083,153.481,439.702,115.096,439.702,115.096z"/>
		<path fill="#4E4EA1" d="M434.729,149.791l1.952-18.865l-4.601,17.674C432.901,149.028,433.788,149.426,434.729,149.791z"/>
		<path fill="#FFFFFF" d="M448.727,112.451l-3.237-0.89c0,0,1.545,2.432,3.802,3.052c2.256,0.62,2.607-1.291,2.607-1.291
			L448.727,112.451z"/>
	</g>
</g>
<path fill="#5552A3" d="M364.752,104.812L236.247,30.604c-4.223-2.438-8.059-2.499-10.959-0.669l-0.006-0.029l-16.124,9.34
	l10.813,2.017c-0.035,0.553-0.066,1.11-0.066,1.694v303.094c0,12.032,7.315,26.012,16.341,31.223l126.699,73.164
	c-1.154,3.619-3.608,11.232-3.608,11.232l15.768-9.146h-0.004c3.656-1.886,5.991-6.603,5.991-13.398V136.033
	C381.093,124,373.776,110.021,364.752,104.812z"/>
<g>
	<polygon fill="#D4EAF9" points="485.545,365.004 466.244,353.86 446.944,365.004 466.244,376.146 	"/>
	<polygon fill="#E7A323" points="466.244,365.811 466.244,353.255 489.303,339.942 489.303,352.498 	"/>
	<polygon fill="#F7BF2F" points="466.244,353.255 443.186,339.942 443.186,352.498 466.244,365.811 	"/>
	<polygon fill="#FDD763" points="489.303,339.942 466.244,326.629 443.186,339.942 466.244,353.255 	"/>
</g>
<path fill="#FFFFFF" d="M409.306,194.963c0,1.974-1.385,2.773-3.094,1.787c-1.709-0.986-3.094-3.386-3.094-5.359
	c0-1.973,1.385-2.773,3.094-1.786C407.921,190.591,409.306,192.99,409.306,194.963z"/>
<path fill="#5552A3" d="M376.783,363.764c-0.496,0-0.979-0.258-1.245-0.72c-0.396-0.688-0.159-1.565,0.527-1.96l54.19-31.202
	c0.484-0.28,0.536-0.745,0.536-0.931c0-0.187-0.053-0.649-0.538-0.929l-28.68-16.472c-4.149-2.382-6.728-6.836-6.728-11.62v-94.368
	c0-4.147,2.047-8.014,5.476-10.346l4.307-2.93c0.656-0.447,1.548-0.275,1.995,0.38c0.446,0.656,0.276,1.55-0.38,1.995l-4.307,2.93
	c-2.643,1.796-4.22,4.777-4.22,7.971v94.368c0,3.76,2.025,7.259,5.286,9.131l28.68,16.472c1.238,0.71,1.979,1.987,1.98,3.416
	c0,1.428-0.738,2.706-1.976,3.42l-54.19,31.201C377.272,363.702,377.026,363.764,376.783,363.764z"/>
<path fill="#4E4EA1" d="M219.906,346.051c0,12.032,7.315,26.012,16.341,31.223l126.699,73.164
	c-1.154,3.619-3.608,11.232-3.608,11.232l15.768-9.146h-0.004c3.656-1.886,5.991-6.603,5.991-13.398V136.033
	c0-6.278-2.003-13.075-5.189-18.889l-155.998,90.065V346.051z"/>
<path fill="#5552A3" d="M348.541,460.871l-128.505-74.207c-9.024-5.21-16.341-19.19-16.341-31.222V52.349
	c0-12.033,7.316-17.563,16.341-12.353l128.505,74.206c9.024,5.211,16.341,19.19,16.341,31.223v303.093
	C364.882,460.55,357.565,466.082,348.541,460.871z"/>
<path fill="#FFFFFF" d="M346.147,450.837L222.669,379.53c-6.708-3.872-12.146-14.262-12.146-23.205V57.538
	c0-8.944,5.438-13.055,12.146-9.183l123.479,71.305c6.707,3.873,12.146,14.263,12.146,23.207v298.788
	C358.293,450.599,352.854,454.709,346.147,450.837z"/>
<path fill="#EDEDED" d="M295.637,359.07l-60.611-34.994v-147.34l28.558,16.488c19.835,11.451,32.053,32.614,32.053,55.518V359.07z"
	/>
<g>
	<path fill="#D4EAF9" d="M213.354,162.484l0.007,0.012c-6.117-3.643-14.617-3.194-24.004,2.226
		c-18.584,10.731-33.703,36.917-33.703,58.376v15.486v0l0,0l0,0l0.638,0.375l60.722,35.721l0.92-18.531l0.757-7.196l3.22-11.173
		l0.369-1.71l6.905-13.914l5.438-6.793l4.409-5.256l10.742-8.459l0.945-0.702l5.281-2.273l7.103-1.846h5.539l6.194,1.084
		L213.354,162.484z"/>
	<path fill="#D4EAF9" d="M221.093,305.703l1.968-1.135v-70.554c-1.022,1.393-1.5,3.179-1.968,4.995V305.703z"/>
	<polygon fill="#D4EAF9" points="282.454,341.056 221.093,305.703 221.727,238.914 224.07,232.168 231.172,219.953 239.575,209.986 
		247.151,203.926 255.342,198.955 270.202,197.251 278.062,201.702 282.454,208.424 283.838,218.746 283.365,330.387 	"/>
	<path fill="#5793CE" d="M213.362,162.496c-5.117-3.048-11.907-3.218-19.485-0.021l62.52,36.095l6.705-1.744h5.539l6.194,1.084
		l-61.48-35.426L213.362,162.496z"/>
	<g>
		<path fill="#EAF6FD" d="M195.349,161.892c-1.946,0.718-3.945,1.649-5.992,2.83c-1.369,0.79-2.714,1.673-4.041,2.623l62.323,35.982
			l2.134-1.68l0.945-0.702l5.281-2.273l2.107-0.546L195.349,161.892z"/>
		<path fill="#FFFFFF" d="M239.559,209.689l8.479-6.676l-62.304-35.971c-2.821,1.979-5.538,4.3-8.109,6.89L239.559,209.689z"/>
		<path fill="#5793CE" d="M284.421,339.92l-1.967,1.136V220.668c0-20.205-14.236-28.425-31.736-18.322
			c-17.5,10.104-31.736,34.762-31.736,54.967v16.23l-1.968,1.136v-16.23c0-21.458,15.119-47.646,33.705-58.375
			c18.584-10.73,33.703-2.001,33.703,19.458V339.92z"/>
	</g>
</g>
<polygon fill="#AFDEED" points="174.265,211.586 170.811,225.705 172.538,248.516 168.16,245.94 162.556,233.541 167.461,217.87 "/>
<g>
	<path opacity="0.4" fill="#FFFFFF" d="M274.661,301.943c-0.372,0-0.762-0.112-1.15-0.338l-44.621-25.763
		c-1.313-0.757-2.344-2.695-2.344-4.413v-35.109c0-1.032,0.381-1.843,1.046-2.227c0.59-0.343,1.308-0.306,2.016,0.105l44.621,25.762
		c1.314,0.757,2.345,2.696,2.345,4.413v35.109c0,1.032-0.382,1.844-1.046,2.229C275.26,301.866,274.967,301.943,274.661,301.943z
		 M228.46,235.3c-0.055,0-0.106,0.012-0.151,0.037c-0.151,0.088-0.328,0.398-0.328,0.984v35.109c0,1.21,0.745,2.662,1.626,3.17
		l44.621,25.764c0.115,0.064,0.4,0.203,0.582,0.105c0.15-0.087,0.327-0.396,0.327-0.984v-35.109c0-1.21-0.745-2.662-1.627-3.17
		l-44.621-25.764C228.804,235.393,228.622,235.3,228.46,235.3z"/>
	<g>
		<path fill="#B3D3E9" d="M242.742,277.274l-0.314-0.181c-1.164-0.672-2.105-2.473-2.105-4.025v-16.73
			c0-1.551,0.942-2.263,2.105-1.592l0.314,0.182c1.164,0.671,2.106,2.473,2.106,4.024v16.729
			C244.848,277.234,243.906,277.946,242.742,277.274z"/>
		<path fill="#B3D3E9" d="M251.718,282.456l-0.314-0.182c-1.163-0.671-2.107-2.474-2.107-4.024v-9.791
			c0-1.552,0.944-2.264,2.107-1.593l0.314,0.181c1.162,0.672,2.105,2.475,2.105,4.025v9.791
			C253.823,282.414,252.88,283.128,251.718,282.456z"/>
		<path fill="#3B6DAB" d="M260.691,287.638l-0.313-0.182c-1.164-0.671-2.106-2.474-2.106-4.024v-23.309
			c0-1.551,0.942-2.263,2.106-1.593l0.313,0.183c1.164,0.671,2.105,2.473,2.105,4.023v23.309
			C262.797,287.596,261.855,288.31,260.691,287.638z"/>
	</g>
</g>
<g>
	<path fill="#D4EAF9" d="M161.684,460.952c14.993,8.655,39.301,8.655,54.293-0.002c14.993-8.655,14.993-22.688,0-31.345
		c-14.993-8.655-39.3-8.655-54.292,0C146.693,438.262,146.693,452.296,161.684,460.952z"/>
	<g>
		<path fill="#1F3F7A" d="M165.308,433.531c-2.675,1.144-4.359,4.124-4.136,7.329c0.105,1.512,0.288,2.921,0.603,3.582
			c0.851,1.786,3.641,4.238,8.092,2.479c4.453-1.759,14.339-11.049,14.709-17.13C185.265,418.496,172.35,430.523,165.308,433.531z"
			/>
		<path fill="#1F3F7A" d="M191.464,452.214c0,0-1.068,6.512-0.549,7.705c0.519,1.194,3.617,3.741,8.194,3.19
			c4.577-0.551,17.747-5.092,20.68-13.77c4.546-13.456-25.42,1.009-25.42,1.009L191.464,452.214z"/>
		<path fill="#FDD763" d="M204.333,348.104l1.019,101.664c-0.108,3.536-2.424,6.521-5.538,7.048
			c-0.386,0.065-0.798,0.117-1.239,0.155c-3.153,0.277-4.991-1.076-6.04-2.498c-0.848-1.151-1.295-2.61-1.358-4.105l-1.298-43.397
			l-6.479-38.803l-8.964,68.676c-0.144,1.857-1.033,3.575-2.464,4.521c-0.987,0.654-2.327,1.162-4.087,1.109
			c-2.565-0.077-4.347-1.451-5.434-2.677c-0.86-0.97-1.315-2.307-1.296-3.676l3.552-41.321l1.322-52.707L204.333,348.104z"/>
		<path fill="#FBC1B1" d="M191.167,257.104l-1.606,9.263c0,0-0.06,3.162,3.468,4.038c3.529,0.875,4.621-1.403,4.621-1.403
			l1.595-10.433L191.167,257.104z"/>
		<path fill="#FBC1B1" d="M210.617,252.029c-2.505,7.937-10.258,12.542-17.317,10.289c-7.058-2.254-10.749-10.516-8.244-18.452
			s10.258-12.542,17.317-10.288C209.431,235.833,213.122,244.094,210.617,252.029z"/>
		<path fill="#7E56A3" d="M191.586,266.537c-0.244-0.1-14.973-9.582-20.417,0.341c-8.877,16.183-2.385,34.736-5.552,75.021
			c-0.53,6.74,9.072,10.849,13.611,13.441c4.039,2.308,8.559,3.721,13.21,3.758c4.603,0.036,13.428-4.055,13.108-10.072
			c-1.473-27.673,0.973-50.999,3.233-73.633C208.781,275.394,205.957,272.354,191.586,266.537z"/>
		<path fill="#D8892A" d="M183.4,368.168l-8.964,68.678c-0.144,1.855-1.033,3.573-2.464,4.52c-0.233,0.155-0.491,0.3-0.764,0.434
			c1.86-1.396,7.294-59.041,8.3-65.452C180.512,369.93,183.4,368.168,183.4,368.168z"/>
	</g>
	<polygon fill="#FBC1B1" points="239.344,274.921 251.674,250.445 247.806,248.002 235.026,266.645 	"/>
	<polygon fill="#FBC1B1" points="158.009,248.932 164.008,221.642 168.785,221.694 166.992,244.327 	"/>
	<path fill="#7E56A3" d="M208.781,275.394c0,0,13.791,5.44,25.642-9.509c1.043-1.316,3.188-1.169,3.806,0.25
		c1.065,2.45,2.4,6.151,0.781,9.626c-7.161,15.371-31.599,14.837-37.485,23.453C195.637,307.83,208.781,275.394,208.781,275.394z"/>
	<path fill="#7E56A3" d="M182.245,263.136c0,0-11.388,0.876-13.027-8.98c-0.844-5.075-1.098-8.107-1.146-9.854
		c-0.032-1.183-1.059-2.078-2.232-1.933c-2.727,0.339-6.95,1.152-7.523,2.98c-0.855,2.73-2.463,16.114,8.785,36.652
		C174.471,295.455,182.245,263.136,182.245,263.136z"/>
	<path fill="#FBC1B1" d="M163.983,221.709l0.109-3.112c0.038-1.098,0.359-2.168,0.931-3.107l3.153-5.182l0.823-1.036
		c0.76-0.958,2.118-1.188,3.153-0.538l0.725,0.456c0.925,0.582,1.458,1.624,1.388,2.713l-1.632,4.428l2.063-0.399
		c0.401-0.079,0.788,0.188,0.86,0.589l0,0c0.062,0.342-0.125,0.68-0.446,0.809l-3.37,1.36l-3.061,4.332L163.983,221.709z"/>
	<path fill="#FBC1B1" d="M251.766,250.601l1.443-2.759c0.51-0.974,0.761-2.062,0.727-3.161l-0.181-6.063l-0.203-1.308
		c-0.188-1.208-1.255-2.081-2.475-2.026l-0.857,0.039c-1.092,0.048-2.069,0.69-2.547,1.673l-0.77,4.656l-1.595-1.367
		c-0.31-0.267-0.778-0.228-1.039,0.087l0,0c-0.223,0.267-0.227,0.652-0.011,0.924l2.257,2.847l0.584,5.932L251.766,250.601z"/>
	<path fill="#694B9E" d="M199.788,296.131c-1.198,5.467,6.021,46.698-2.007,61.776c4.015-1.627,7.984-4.811,7.768-8.881
		c-1.054-19.79-0.101-37.351,1.353-54.031c6.867-3.478,17.596-5.553,25.186-11.11C223.949,286.884,200.857,291.252,199.788,296.131z
		"/>
	<path fill="#FFFFFF" d="M186.291,263.92l2.044-2.101c0,0,3.364,3.438,6.067,4.033c0,0,3.252,0.922,4.842,1.001l1.316,3.63
		C200.562,270.483,189.849,269.717,186.291,263.92z"/>
	<path fill="#1F3F7A" d="M201.009,252.276c0.565-0.01,1.089-0.267,1.411-0.73c0.559-0.811,0.206-4.531,1.929-5.146
		c2.693-0.96,9.082,2.41,9.764-7.306c0.355-5.051-2.103-6.393-2.091-9.159c0,0,0.213,1.387-12.782,0.524
		c-12.994-0.864-17.219,10.675-17.526,16.171c-0.307,5.497,2.353,14.533,11.232,15.773c1.474,0.205,7.658-4.768,7.498-5.42
		c-0.16-0.651-2.494-0.615-2.156-2.514C198.568,252.886,199.533,252.303,201.009,252.276z"/>
</g>
<g>
	<g>
		<path fill="#EDEDED" d="M267.668,134.923l-39.262-22.668c-1.745-1.008-3.158-3.709-3.158-6.036V77.025
			c0-2.326,1.413-3.396,3.158-2.388l39.262,22.667c1.745,1.008,3.16,3.709,3.16,6.036v29.193
			C270.828,134.86,269.413,135.929,267.668,134.923z"/>
		<path fill="#4E4EA1" d="M263.783,88.608l-39.262-22.667c-0.776-0.449-1.479-0.465-2.03-0.163c0-0.003,0.003-0.025,0.003-0.025
			l-3.808,2.2c0,0,1.686,0.616,2.675,0.979v28.592c0,2.326,1.415,5.029,3.16,6.036l37.526,21.666v3.355l3.849-2.216l-0.021-0.007
			c0.65-0.396,1.066-1.268,1.066-2.518V94.645C266.941,92.318,265.527,89.616,263.783,88.608z"/>
		<path fill="#5552A3" d="M259.905,128.462l-39.263-22.668c-1.744-1.008-3.159-3.71-3.159-6.036V70.564
			c0-2.326,1.415-3.396,3.159-2.388l39.263,22.667c1.744,1.008,3.158,3.709,3.158,6.036v29.194
			C263.063,128.4,261.649,129.469,259.905,128.462z"/>
		<path fill="#FFFFFF" d="M259.905,90.844l-39.263-22.667c-0.991-0.573-1.866-0.455-2.445,0.164
			c0.422-0.035,0.892,0.064,1.394,0.354l39.263,22.668c1.744,1.008,3.159,3.71,3.159,6.036v29.194c0,1.004-0.275,1.754-0.714,2.225
			c1.041-0.087,1.765-1.088,1.765-2.744V96.881C263.063,94.553,261.649,91.851,259.905,90.844z"/>
	</g>
	<g>
		<path fill="#FFFFFF" d="M233.846,95.734c0,1.689-1.186,2.374-2.648,1.529c-1.464-0.845-2.65-2.899-2.65-4.588
			s1.186-2.374,2.65-1.53C232.66,91.991,233.846,94.044,233.846,95.734z"/>
		<path fill="#FFFFFF" d="M241.872,100.367c0,1.689-1.186,2.374-2.649,1.53c-1.464-0.846-2.65-2.899-2.65-4.589
			s1.186-2.374,2.65-1.529C240.686,96.624,241.872,98.678,241.872,100.367z"/>
		<path fill="#FFFFFF" d="M249.896,105.001c0,1.689-1.186,2.374-2.649,1.529c-1.462-0.845-2.648-2.899-2.648-4.588
			c0-1.689,1.186-2.375,2.648-1.53C248.71,101.257,249.896,103.312,249.896,105.001z"/>
	</g>
</g>
<g>
	<g>
		<path fill="#EDEDED" d="M345.799,289.027l-39.264-22.668c-1.743-1.007-3.158-3.71-3.158-6.036v-65.701
			c0-2.326,1.415-3.396,3.158-2.389l39.264,22.668c1.744,1.007,3.158,3.71,3.158,6.036v65.702
			C348.957,288.966,347.543,290.035,345.799,289.027z"/>
		<path fill="#5793CE" d="M341.912,206.206l-39.262-22.667c-0.776-0.449-1.479-0.466-2.029-0.164
			c0.001-0.003,0.003-0.025,0.003-0.025l-3.809,2.201c0,0,1.687,0.615,2.677,0.978v65.099c0,2.327,1.414,5.03,3.158,6.037
			l37.528,21.666v3.354l3.847-2.215l-0.021-0.007c0.651-0.396,1.068-1.268,1.068-2.52v-65.701
			C345.072,209.916,343.658,207.213,341.912,206.206z"/>
		<path fill="#D4EAF9" d="M338.035,282.567l-39.262-22.669c-1.746-1.006-3.16-3.709-3.16-6.035v-65.701
			c0-2.327,1.414-3.396,3.16-2.389l39.262,22.668c1.744,1.007,3.158,3.709,3.158,6.036v65.702
			C341.193,282.505,339.779,283.575,338.035,282.567z"/>
		<path fill="#FFFFFF" d="M338.035,208.441l-39.262-22.668c-0.993-0.572-1.868-0.454-2.445,0.164
			c0.422-0.035,0.89,0.064,1.394,0.355l39.262,22.668c1.744,1.007,3.158,3.709,3.158,6.036v65.702c0,1.005-0.273,1.755-0.713,2.225
			c1.043-0.086,1.765-1.088,1.765-2.742v-65.702C341.193,212.151,339.779,209.448,338.035,208.441z"/>
	</g>
</g>
<g>
	<g>
		<path fill="#EDEDED" d="M345.799,377.795l-39.264-22.667c-1.743-1.008-3.158-3.709-3.158-6.035V283.39
			c0-2.325,1.415-3.396,3.158-2.389l39.264,22.67c1.744,1.007,3.158,3.709,3.158,6.035v65.701
			C348.957,377.733,347.543,378.803,345.799,377.795z"/>
		<path fill="#4E4EA1" d="M341.912,294.975l-39.262-22.669c-0.776-0.448-1.479-0.465-2.029-0.162
			c0.001-0.003,0.003-0.025,0.003-0.025l-3.809,2.201c0,0,1.687,0.614,2.677,0.978v65.1c0,2.326,1.414,5.028,3.158,6.035
			l37.528,21.667v3.354l3.847-2.215l-0.021-0.007c0.651-0.396,1.068-1.268,1.068-2.52V301.01
			C345.072,298.684,343.658,295.98,341.912,294.975z"/>
		<path fill="#5552A3" d="M338.035,371.335l-39.262-22.667c-1.746-1.008-3.16-3.71-3.16-6.035V276.93
			c0-2.326,1.414-3.396,3.16-2.389l39.262,22.67c1.744,1.006,3.158,3.709,3.158,6.035v65.701
			C341.193,371.273,339.779,372.343,338.035,371.335z"/>
		<path fill="#FFFFFF" d="M338.035,297.209l-39.262-22.668c-0.993-0.572-1.868-0.454-2.445,0.164
			c0.422-0.035,0.89,0.064,1.394,0.354l39.262,22.67c1.744,1.006,3.158,3.709,3.158,6.034v65.702c0,1.003-0.273,1.754-0.713,2.225
			c1.043-0.087,1.765-1.088,1.765-2.743v-65.701C341.193,300.919,339.779,298.217,338.035,297.209z"/>
	</g>
</g>
<g>
	<g>
		<path fill="#D4EAF9" d="M82.326,406.34l34.507-19.443c1.533-0.863,4.194-0.727,5.944,0.309l21.954,12.983
			c1.75,1.033,1.924,2.572,0.391,3.437l-34.507,19.444c-1.534,0.864-4.195,0.727-5.943-0.308l-21.954-12.984
			C80.967,408.743,80.792,407.205,82.326,406.34z"/>
		<path fill="#F7BF2F" d="M110.114,413.295l39.498-22.257c0.781-0.44,1.154-1.036,1.173-1.663c0.003,0,0.02,0.014,0.02,0.014
			l0.045-4.397c0,0-1.388,1.139-2.204,1.806l-24.611-14.554c-2.002-1.185-5.048-1.343-6.803-0.354L79.48,393.163l-2.888-1.709
			l-0.052,4.44l0.017-0.015c0.01,0.762,0.547,1.563,1.624,2.201l25.128,14.861C105.313,414.125,108.359,414.283,110.114,413.295z"/>
		<path fill="#FDD763" d="M77.785,389.67l39.497-22.257c1.755-0.988,4.801-0.831,6.804,0.354l25.128,14.861
			c2.003,1.185,2.202,2.945,0.448,3.935l-39.498,22.255c-1.754,0.99-4.801,0.831-6.803-0.354l-25.129-14.86
			C76.23,392.42,76.03,390.659,77.785,389.67z"/>
		<path fill="#FFFFFF" d="M110.165,408.817l39.497-22.255c0.997-0.563,1.342-1.375,1.104-2.188c-0.185,0.382-0.509,0.733-1.015,1.02
			l-39.497,22.255c-1.755,0.989-4.801,0.832-6.803-0.354l-25.128-14.859c-0.864-0.512-1.371-1.129-1.551-1.747
			c-0.457,0.941,0.037,2.073,1.462,2.915l25.129,14.86C105.364,409.65,108.41,409.808,110.165,408.817z"/>
	</g>
	<g>
		<path fill="#FFFFFF" d="M119.22,383.899c-1.454-0.859-1.44-2.229,0.032-3.06c1.472-0.828,3.844-0.805,5.298,0.057
			c1.454,0.86,1.44,2.229-0.032,3.059C123.047,384.783,120.675,384.76,119.22,383.899z"/>
		<path fill="#FFFFFF" d="M111.147,388.448c-1.454-0.859-1.44-2.229,0.032-3.058c1.472-0.83,3.844-0.805,5.298,0.055
			s1.44,2.229-0.032,3.058C114.973,389.333,112.602,389.308,111.147,388.448z"/>
		<path fill="#FFFFFF" d="M103.074,392.998c-1.454-0.861-1.44-2.229,0.032-3.06s3.844-0.805,5.298,0.057
			c1.454,0.859,1.439,2.229-0.032,3.059C106.9,393.883,104.528,393.858,103.074,392.998z"/>
	</g>
</g>
<g>
	<path fill="#D4EAF9" d="M68.883,370.737c-10.783,6.227-28.266,6.225-39.049,0s-10.784-16.318,0-22.545
		c10.783-6.226,28.266-6.226,39.049,0C79.666,354.419,79.666,364.513,68.883,370.737z"/>
	<g>
		<path fill="#62489D" d="M33.749,166.749c0,0,0.71,14.635,1.824,24.471s24.803-7.555,24.803-7.555v-11.199L33.749,166.749z"/>
		<g>
			<path fill="#1F3F7A" d="M46.367,348.843c0.355,0.89,6.493,8.361,12.631,10.229c2.669,0.812,4.462,0.918,5.639,0.777
				c1.18-0.14,1.909-1.355,1.511-2.476c-1.056-2.972-4.083-9.166-11.775-12.979C43.964,339.235,46.367,348.843,46.367,348.843z"/>
			<path fill="#1F3F7A" d="M44.321,351.713c0,0,2.313,5.426,3.024,9.962c0.435,2.768-1.084,6.362-2.335,8.746
				c-0.776,1.478-2.743,1.812-3.98,0.688c-2.005-1.82-4.559-4.981-4.981-9.522c-0.712-7.65,0-8.985,0-8.985L44.321,351.713z"/>
			<path fill="#FDD763" d="M29.535,259.253c0,0-0.8,9.649,0,20.323c0.801,10.675,3.667,60.593,4.201,72.603
				c0,0-0.267,3.637,6.771,2.834c7.038-0.8,6.471-4.836,6.471-4.836s9.884-0.134,10.196-5.96
				c0.311-5.825,10.124-69.575,10.124-92.494L29.535,259.253z"/>
			<g>
				<path fill="#FBC1B1" d="M70.954,209.358l4.843,7.5l16.647,20.106c0,0-0.573,1.866-2.645,2.355
					c-1.619,0.382-15.62-12.977-21.667-18.837c-1.606-1.558-1.874-4.037-0.639-5.901L70.954,209.358z"/>
				<path fill="#7650A1" d="M61.506,178.57c0,0,7.693-0.199,10.371,10.919c2.679,11.119,4.773,25.04,2.444,26.196
					c-6.992,3.473-11.417-0.591-11.417-0.591L61.506,178.57z"/>
				<path fill="#7E56A3" d="M63.809,179.042c-1.313-0.548-2.786-0.621-4.152-0.229c-6.554,1.883-31.197,9.114-35.259,12.586
					c-4.692,4.011,7.037,26.549,6.868,33.938s-1.002,16.101-1.655,24.134c-0.653,8.033-1.537,12.437,5.034,15.852
					s17.789,3.573,26.187-2.825c8.397-6.398,6.874-10.776,6.524-15.422c-0.35-4.646-3.209-24.735-2.961-30.438
					c0,0,2.959-2.18,5.151-5.918c2.192-3.739-1.68-10.61-3.287-15.076c-1.607-4.468,0.907-9.576,0.41-13.221
					C66.411,180.546,65.212,179.628,63.809,179.042z"/>
				
					<ellipse transform="matrix(0.9919 -0.127 0.127 0.9919 -23.4891 7.4498)" fill="#FFFFFF" cx="46.673" cy="187.912" rx="9.334" ry="7.41"/>
				
					<ellipse transform="matrix(0.9919 -0.127 0.127 0.9919 -23.4914 7.4507)" fill="#FBC1B1" cx="46.672" cy="187.912" rx="6.671" ry="5.296"/>
				<path fill="#FBC1B1" d="M49.658,177.54c0,0-4.448-3.659-5.322-1.806c-0.874,1.853-1.594,9.805-1.594,9.805l8.834,2.373
					l-1.341-8.057C50.235,179.854,52.003,178.355,49.658,177.54z"/>
				<circle fill="#FBC1B1" cx="50.297" cy="168.047" r="13.19"/>
				<path fill="#EA9C92" d="M43.72,178.039c-0.079,0.415-0.153,0.861-0.225,1.315c0.887,4.59,7.755,6.598,7.755,6.598l-1.015-6.097
					c0,0,0.833-0.706,0.597-1.412C48.118,177.585,44.698,176.827,43.72,178.039z"/>
				<circle fill="#FBC1B1" cx="50.297" cy="168.047" r="13.19"/>
				<polygon fill="#FBC1B1" points="17.798,223.882 19.275,259.178 24.435,259.711 27.793,227.936 				"/>
				<path fill="#7650A1" d="M34.756,220.931c-0.279-1.229-2.538-2.24-2.883-3.842c-1.772-8.223-2.198-20.347-2.198-20.347
					l-1.442,16.563c1.663,4.912,3.092,9.421,3.033,12.034c-0.099,4.337-0.429,9.132-0.815,13.976l0,0.014
					C30.452,239.328,36.464,228.468,34.756,220.931z"/>
				<path fill="#9267AC" d="M25.384,190.676c0,0-4.126,1.577-6.462,14.252c-2.335,12.673-4.082,25.37,0.082,27.006
					s7.642,2.866,8.867-0.523c1.224-3.391,1.982-19.724,2.136-25.6C30.16,199.937,30.384,191.837,25.384,190.676z"/>
				<path fill="#FBC1B1" d="M91.209,235.496c0,0,2.235,0.822,3.85,2.581c1.325,1.443,2.051,2.668,2.63,3.532
					c1.285,1.917,2.37,6.062,1.586,6.578c-0.784,0.516-5.267-6.94-5.989-5.206s0.006,3.337-0.92,3.363
					c-0.927,0.026-4.148-7.494-6.681-9.826C83.15,234.188,91.209,235.496,91.209,235.496z"/>
			</g>
			<path fill="#D8892A" d="M46.978,350.177c0,0,1.225-0.018,2.824-0.292l0,0l1.936-77.597L46.978,350.177z"/>
		</g>
		<g>
			<path fill="#7E56A3" d="M39.509,308.261l-2.746-3.583L7.888,287.959c-0.925-0.535-1.675-1.973-1.673-3.206l0.025-23.642
				l-1.66-2.167l1.56-0.903l0.001,0.002c0.299-0.192,0.695-0.188,1.132,0.065l32.724,18.946c0.925,0.535,1.675,1.973,1.673,3.206
				l-0.027,25.745c-0.001,0.696-0.24,1.18-0.613,1.374l0,0L39.509,308.261z"/>
			<path fill="#BFA1CC" d="M19.541,294.705l-2.052-1.188l-11.261-19.56l0.012-12.847l-1.66-2.167l1.56-0.903l0.001,0.002
				c0.299-0.192,0.695-0.188,1.132,0.065l32.724,18.946c0.489,0.283,0.928,0.818,1.233,1.442L19.541,294.705z"/>
			<path fill="#BFA1CC" d="M5.316,259.906l-0.736-0.962l1.56-0.903l0.001,0.002c0.299-0.192,0.695-0.188,1.132,0.065l0.577,0.334
				L5.316,259.906z"/>
			<path fill="#7E56A3" d="M40.295,277.264c0.726,0.596,1.291,1.719,1.367,2.756l-3.198,1.848l-1.532-2.662L40.295,277.264z"/>
			<path fill="#9267AC" d="M38.438,277.957L5.715,259.012c-0.925-0.537-1.677,0.029-1.679,1.266l-0.027,25.745
				c-0.002,1.235,0.747,2.671,1.673,3.207l32.724,18.945c0.926,0.537,1.677-0.03,1.679-1.266l0.028-25.745
				C40.114,279.93,39.365,278.493,38.438,277.957z"/>
		</g>
		<polygon fill="#FFFFFF" points="31.716,296.423 30.158,295.522 30.158,282.133 31.716,283.032 		"/>
		<polygon fill="#FFFFFF" points="28.076,294.319 26.517,293.421 26.517,280.031 28.076,280.931 		"/>
		<polygon fill="#FFFFFF" points="24.434,292.218 22.875,291.318 22.875,277.928 24.434,278.828 		"/>
		<path fill="#FBC1B1" d="M19.315,258.884c0,0-1.364,8.239-1.159,10.878c0.205,2.64,1.617,6.991,2.689,6.898
			c1.072-0.091,0.035-10.611,1.918-9.563c1.883,1.049,2.081,2.846,2.933,2.211c0.853-0.636-1.487-9.626-0.863-13.525
			C25.458,251.883,19.315,258.884,19.315,258.884z"/>
		<path fill="#EA9C92" d="M55.363,169.199c6.616,2.35,7.905,0.916,7.968,0.839c0.061-0.399,0.109-0.802,0.133-1.213
			c0.087-1.46-0.079-2.875-0.439-4.214l-17.167-2.317C45.858,162.293,48.568,166.785,55.363,169.199z"/>
		<path fill="#62489D" d="M63.939,155.684c-1.559-1.337-7.186-7.946-17.267-6.386c-6.3,0.975-11.611,5.272-12.789,15.077
			c-0.793,6.606,1.631,13.112,6.097,17.922c0.242-0.112,0.492-0.215,0.716-0.362c2.525-1.662,2.797-2.575,2.797-2.584l0.558-5.003
			c-0.017-0.709-0.549-1.342-1.257-1.386c-0.548-0.035-1.214-0.298-1.847-1.126c-1.448-1.893-0.78-4.845,2.116-4.957
			c1.513-0.059,2.099-0.877,2.313-1.646c0.187-0.668,0.892-1.04,1.545-0.804c3.294,1.192,11.413,3.763,16.637,2.282
			C70.241,164.818,65.5,157.021,63.939,155.684z"/>
		<path fill="#FFFFFF" d="M56.423,175.157l4.035-1.109c0,0-1.926,3.03-4.739,3.803c-2.813,0.772-3.25-1.608-3.25-1.608
			L56.423,175.157z"/>
		<polygon fill="#BFA1CC" points="26.176,269.052 22.737,267.084 24.029,269.191 25.767,269.833 		"/>
	</g>
</g>
<g>
	<g>
		<path fill="#4E4EA1" d="M102.061,274.678l39.401-22.424c0.779-0.444,1.149-1.042,1.166-1.669c0.003,0.002,0.02,0.015,0.02,0.015
			l0.026-4.398c0,0-1.383,1.145-2.197,1.815l-24.672-14.449c-2.007-1.175-5.053-1.321-6.804-0.325L71.34,254.678l-2.895-1.696
			l-0.032,4.44l0.017-0.015c0.014,0.762,0.554,1.563,1.634,2.194l25.192,14.753C97.264,275.53,100.31,275.675,102.061,274.678z"/>
		<path fill="#5552A3" d="M69.63,251.192l39.402-22.425c1.751-0.996,4.797-0.852,6.804,0.325l25.192,14.752
			c2.008,1.176,2.215,2.936,0.464,3.933l-39.402,22.426c-1.75,0.995-4.797,0.851-6.804-0.325l-25.192-14.753
			C68.087,253.949,67.88,252.189,69.63,251.192z"/>
		<path fill="#FFFFFF" d="M102.092,270.203l39.401-22.426c0.995-0.566,1.336-1.38,1.095-2.192c-0.184,0.381-0.506,0.736-1.011,1.023
			l-39.402,22.424c-1.751,0.997-4.797,0.852-6.805-0.323l-25.191-14.753c-0.867-0.508-1.376-1.123-1.559-1.74
			c-0.452,0.942,0.046,2.072,1.475,2.909l25.192,14.753C97.294,271.054,100.341,271.198,102.092,270.203z"/>
	</g>
	<g>
		<path fill="#FFFFFF" d="M111.041,245.245c-1.458-0.854-1.45-2.223,0.019-3.058c1.468-0.835,3.84-0.822,5.298,0.032
			c1.458,0.854,1.449,2.224-0.019,3.059C114.871,246.113,112.499,246.099,111.041,245.245z"/>
		<path fill="#FFFFFF" d="M102.987,249.829c-1.458-0.854-1.449-2.224,0.019-3.059c1.469-0.835,3.841-0.82,5.298,0.033
			c1.458,0.854,1.45,2.223-0.019,3.059C106.817,250.697,104.445,250.682,102.987,249.829z"/>
		<path fill="#FFFFFF" d="M94.934,254.411c-1.458-0.852-1.449-2.222,0.019-3.058c1.469-0.836,3.84-0.821,5.298,0.032
			c1.458,0.854,1.449,2.224-0.019,3.06C98.763,255.28,96.392,255.267,94.934,254.411z"/>
	</g>
</g>
<g>
	<path fill="#D0118B" d="M324.132,306.113c0,3.653-2.564,5.134-5.729,3.307c-3.163-1.826-5.728-6.267-5.728-9.92
		c0-3.652,2.564-5.133,5.728-3.308C321.567,298.02,324.132,302.461,324.132,306.113z"/>
	<path fill="#D0118B" d="M326.52,316.438c-0.008-0.057-0.016-0.114-0.024-0.17c-0.245-1.539-1.702-2.89-2.662-2.547
		c-1.483,0.528-3.372,0.271-5.43-0.917c-2.057-1.189-3.945-3.109-5.43-5.353c-0.961-1.451-2.416-1.782-2.661-0.526
		c-0.009,0.047-0.017,0.093-0.025,0.141l-2.716,17.252l21.665,12.509L326.52,316.438z"/>
</g>
<g>
	<path fill="#FFFFFF" d="M324.132,306.113c0,3.653-2.564,5.134-5.729,3.307c-3.163-1.826-5.728-6.267-5.728-9.92
		c0-3.652,2.564-5.133,5.728-3.308C321.567,298.02,324.132,302.461,324.132,306.113z"/>
	<path fill="#FFFFFF" d="M326.52,316.438c-0.008-0.057-0.016-0.114-0.024-0.17c-0.245-1.539-1.702-2.89-2.662-2.547
		c-1.483,0.528-3.372,0.271-5.43-0.917c-2.057-1.189-3.945-3.109-5.43-5.353c-0.961-1.451-2.416-1.782-2.661-0.526
		c-0.009,0.047-0.017,0.093-0.025,0.141l-2.716,17.252l21.665,12.509L326.52,316.438z"/>
</g>
<g>
	<polygon fill="#FFFFFF" points="330.77,349.955 304.468,334.769 304.468,332.873 330.77,348.06 	"/>
	<polygon fill="#FFFFFF" points="322.828,353.653 304.468,343.053 304.468,341.156 322.828,351.758 	"/>
	<polygon fill="#FFFFFF" points="320.352,348.082 304.468,338.912 304.468,337.015 320.352,346.187 	"/>
	<polygon fill="#FFFFFF" points="330.77,354.097 322.828,349.512 322.828,347.616 330.77,352.201 	"/>
</g>
<g>
	<polygon fill="#5793CE" points="330.83,223.279 304.528,208.094 304.528,206.197 330.83,221.383 	"/>
	<polygon fill="#5793CE" points="322.888,226.977 304.528,216.376 304.528,214.48 322.888,225.081 	"/>
	<polygon fill="#5793CE" points="320.412,221.405 304.528,212.235 304.528,210.339 320.412,219.51 	"/>
	<polygon fill="#5793CE" points="330.83,227.42 322.888,222.835 322.888,220.94 330.83,225.524 	"/>
</g>
<g>
	<polygon fill="#5793CE" points="330.83,239.276 304.528,224.09 304.528,222.194 330.83,237.38 	"/>
	<polygon fill="#5793CE" points="322.888,242.974 304.528,232.374 304.528,230.478 322.888,241.078 	"/>
	<polygon fill="#5793CE" points="320.412,237.402 304.528,228.231 304.528,226.336 320.412,235.506 	"/>
	<polygon fill="#5793CE" points="330.83,243.417 322.888,238.832 322.888,236.936 330.83,241.522 	"/>
</g>
<g>
	<polygon fill="#5793CE" points="330.83,255.272 304.528,240.087 304.528,238.191 330.83,253.377 	"/>
	<polygon fill="#5793CE" points="322.888,258.971 304.528,248.371 304.528,246.474 322.888,257.075 	"/>
	<polygon fill="#5793CE" points="320.412,253.399 304.528,244.229 304.528,242.333 320.412,251.504 	"/>
	<polygon fill="#5793CE" points="330.83,259.414 322.888,254.829 322.888,252.934 330.83,257.519 	"/>
</g>
<g>
	<polygon fill="#FFFFFF" points="247.944,300.144 229.181,289.311 229.181,287.56 247.944,298.393 	"/>
	<polygon fill="#FFFFFF" points="259.573,306.857 251.561,302.23 251.561,300.479 259.573,305.106 	"/>
	<polygon fill="#FFFFFF" points="248.59,304.331 240.578,299.704 240.578,297.953 248.59,302.58 	"/>
	<polygon fill="#FFFFFF" points="265.944,314.35 251.561,306.046 251.561,304.293 265.944,312.599 	"/>
	<polygon fill="#FFFFFF" points="275.789,323.848 254.516,311.563 254.516,309.814 275.789,322.097 	"/>
	<polygon fill="#FFFFFF" points="271.034,313.475 263.021,308.85 263.021,307.097 271.034,311.724 	"/>
	<polygon fill="#FFFFFF" points="237.193,297.75 229.181,293.125 229.181,291.373 237.193,295.999 	"/>
	<polygon fill="#FFFFFF" points="251.08,309.581 229.142,296.916 229.142,295.164 251.08,307.83 	"/>
	<polygon fill="#FFFFFF" points="242.633,308.519 229.398,300.877 229.398,299.126 242.633,306.767 	"/>
</g>
<path fill="#FDD763" d="M437.33,400.862c-0.491,0-0.969-0.252-1.238-0.706c-0.402-0.682-0.177-1.562,0.506-1.966l55.604-32.859
	c0.448-0.263,0.499-0.695,0.499-0.869s-0.046-0.605-0.492-0.872l-15.174-9.105c-0.68-0.408-0.899-1.29-0.491-1.97
	c0.407-0.679,1.288-0.901,1.97-0.492l15.173,9.106c1.187,0.709,1.89,1.959,1.886,3.345c-0.004,1.382-0.72,2.627-1.909,3.331
	l-55.604,32.859C437.829,400.798,437.578,400.862,437.33,400.862z"/>
<g>
	<polygon fill="#D4EAF9" points="448.202,426.033 428.901,414.891 409.601,426.033 428.901,437.178 	"/>
	<polygon fill="#4E4EA1" points="428.901,426.841 428.901,414.285 451.959,400.972 451.959,413.528 	"/>
	<polygon fill="#4E4EA1" points="428.901,414.285 405.842,400.972 405.842,413.528 428.901,426.841 	"/>
	<polygon fill="#5552A3" points="451.959,400.972 428.901,387.659 405.842,400.972 428.901,414.285 	"/>
</g>
</svg>
